<?xml version="1.0" standalone="no"?>
<svg viewBox="0 0 200 200" xmlns="http://www.w3.org/2000/svg">
  <path fill="#000000" d="M67.2,-39.8C80.3,-16.1,79.5,14.7,65.9,37.1C52.4,59.5,26.2,73.6,-0.9,74.1C-28.1,74.7,-56.2,61.7,-70.3,38.9C-84.5,16.1,-84.7,-16.5,-70.7,-40.7C-56.6,-65,-28.3,-80.9,-0.6,-80.6C27,-80.2,54.1,-63.5,67.2,-39.8Z" transform="translate(100 100)" />
</svg>

<svg viewBox="0 0 200 200" xmlns="http://www.w3.org/2000/svg">

  <path fill="#000000" d="M67.2,-39.8C80.3,-16.1,79.5,14.7,65.9,37.1C52.4,59.5,26.2,73.6,-0.9,74.1C-28.1,74.7,-56.2,61.7,-70.3,38.9C-84.5,16.1,-84.7,-16.5,-70.7,-40.7C-56.6,-65,-28.3,-80.9,-0.6,-80.6C27,-80.2,54.1,-63.5,67.2,-39.8Z" transform="translate(100 100)" />
</svg>



